<svg  viewBox="0 0 493 493" fill="none" xmlns="http://www.w3.org/2000/svg">
  <path d="M246.68 0.919769C314.539 0.919769 375.981 28.4298 420.453 72.9061C464.929 117.378 492.439 178.819 492.439 246.68C492.439 314.539 464.929 375.981 420.453 420.453C375.981 464.929 314.538 492.439 246.68 492.439C178.819 492.439 117.378 464.929 72.9062 420.453C28.4299 375.981 0.919861 314.538 0.919861 246.68C0.919861 178.819 28.4299 117.378 72.9062 72.9061C117.378 28.4298 178.819 0.919769 246.68 0.919769Z" fill="#B0BEC5"/>
  <path d="M190.596 134.514C213.915 134.514 232.818 115.611 232.818 92.2925C232.818 68.9743 213.915 50.0713 190.596 50.0713C167.278 50.0713 148.375 68.9743 148.375 92.2925C148.375 115.611 167.278 134.514 190.596 134.514Z" fill="#ECEFF1"/>
  <path d="M106.154 230.006C120.263 230.006 131.701 218.568 131.701 204.459C131.701 190.35 120.263 178.912 106.154 178.912C92.0446 178.912 80.6068 190.35 80.6068 204.459C80.6068 218.568 92.0446 230.006 106.154 230.006Z" fill="#ECEFF1"/>
  <path d="M240.02 221.718C260.273 221.718 276.692 205.3 276.692 185.047C276.692 164.794 260.273 148.375 240.02 148.375C219.767 148.375 203.349 164.794 203.349 185.047C203.349 205.3 219.767 221.718 240.02 221.718Z" fill="#ECEFF1"/>
  <path d="M381.654 209.89C395.374 209.89 406.497 198.767 406.497 185.047C406.497 171.326 395.374 160.203 381.654 160.203C367.933 160.203 356.81 171.326 356.81 185.047C356.81 198.767 367.933 209.89 381.654 209.89Z" fill="#ECEFF1"/>
  <path d="M310.82 120.497C318.911 120.497 325.47 113.938 325.47 105.848C325.47 97.757 318.911 91.1983 310.82 91.1983C302.73 91.1983 296.171 97.757 296.171 105.848C296.171 113.938 302.73 120.497 310.82 120.497Z" fill="#ECEFF1"/>
  <path d="M106.154 394.135C129.472 394.135 148.375 375.232 148.375 351.914C148.375 328.596 129.472 309.693 106.154 309.693C82.8358 309.693 63.9327 328.596 63.9327 351.914C63.9327 375.232 82.8358 394.135 106.154 394.135Z" fill="#ECEFF1"/>
  <path d="M234.199 443.286C254.452 443.286 270.87 426.868 270.87 406.615C270.87 386.362 254.452 369.943 234.199 369.943C213.946 369.943 197.527 386.362 197.527 406.615C197.527 426.868 213.946 443.286 234.199 443.286Z" fill="#ECEFF1"/>
  <path d="M398.453 373.089C412.173 373.089 423.296 361.966 423.296 348.246C423.296 334.525 412.173 323.402 398.453 323.402C384.732 323.402 373.61 334.525 373.61 348.246C373.61 361.966 384.732 373.089 398.453 373.089Z" fill="#ECEFF1"/>
  <path d="M270.284 321.378C284.393 321.378 295.831 309.94 295.831 295.831C295.831 281.721 284.393 270.284 270.284 270.284C256.175 270.284 244.737 281.721 244.737 295.831C244.737 309.94 256.175 321.378 270.284 321.378Z" fill="#ECEFF1"/>
  <path d="M246.68 0.919762C314.539 0.919762 375.981 28.4298 420.453 72.9061C464.929 117.378 492.439 178.819 492.439 246.68C492.439 314.539 464.929 375.981 420.453 420.453C375.981 464.929 314.538 492.439 246.68 492.439V0.919762Z" fill="#9EABB1"/>
  <path fill-rule="evenodd" clip-rule="evenodd" d="M246.68 148.981C263.754 152.113 276.691 167.069 276.691 185.047C276.691 203.026 263.754 217.982 246.68 221.113V148.981Z" fill="#D4D7D9"/>
  <path fill-rule="evenodd" clip-rule="evenodd" d="M381.654 160.204C395.374 160.204 406.497 171.327 406.497 185.047C406.497 198.767 395.374 209.89 381.654 209.89C367.933 209.89 356.811 198.767 356.811 185.047C356.811 171.327 367.933 160.204 381.654 160.204Z" fill="#D4D7D9"/>
  <path fill-rule="evenodd" clip-rule="evenodd" d="M310.82 91.1981C318.911 91.1981 325.469 97.7563 325.469 105.847C325.469 113.939 318.911 120.497 310.82 120.497C302.729 120.497 296.171 113.939 296.171 105.847C296.171 97.7563 302.729 91.1981 310.82 91.1981Z" fill="#D4D7D9"/>
  <path fill-rule="evenodd" clip-rule="evenodd" d="M246.68 372.124C260.787 377.231 270.87 390.744 270.87 406.615C270.87 422.485 260.787 435.999 246.68 441.106V372.124Z" fill="#D4D7D9"/>
  <path fill-rule="evenodd" clip-rule="evenodd" d="M398.453 323.403C412.173 323.403 423.296 334.526 423.296 348.246C423.296 361.967 412.173 373.089 398.453 373.089C384.732 373.089 373.61 361.967 373.61 348.246C373.61 334.526 384.732 323.403 398.453 323.403Z" fill="#D4D7D9"/>
  <path fill-rule="evenodd" clip-rule="evenodd" d="M270.284 270.284C284.393 270.284 295.831 281.723 295.831 295.831C295.831 309.94 284.393 321.378 270.284 321.378C259.642 321.378 250.521 314.867 246.68 305.615V286.047C250.521 276.795 259.642 270.284 270.284 270.284Z" fill="#D4D7D9"/>
</svg>