<svg  viewBox="0 0 493 493" fill="none" xmlns="http://www.w3.org/2000/svg">
  <path fill-rule="evenodd" clip-rule="evenodd" d="M253.706 55.2883C239.652 40.4321 232.117 40.4321 239.299 55.2883C232.117 40.4321 239.652 11.9957 253.706 0.920166C239.652 11.9957 247.188 40.4321 268.112 55.2883C247.188 40.4321 239.652 40.4321 253.706 55.2883Z" fill="#FFB300"/>
  <path fill-rule="evenodd" clip-rule="evenodd" d="M102.596 390.763C140.95 429.118 192.43 450.442 246.68 450.442C300.929 450.442 352.409 429.118 390.763 390.763C429.119 352.409 450.442 300.929 450.442 246.68C450.442 192.43 429.119 140.95 390.763 102.596C352.409 64.2408 300.929 42.9174 246.68 42.9174C192.43 42.9174 140.951 64.2407 102.596 102.596C64.2412 140.95 42.9178 192.43 42.9178 246.68C42.9178 300.929 64.2411 352.408 102.596 390.763Z" fill="#FFB300"/>
  <path fill-rule="evenodd" clip-rule="evenodd" d="M303.002 63.6278C293.272 45.6403 285.994 43.6901 289.086 59.899C285.994 43.69 300.632 18.1729 317.073 11.1124C300.632 18.173 300.551 47.5909 316.918 67.3567C300.551 47.5909 293.272 45.6403 303.002 63.6278Z" fill="#FFB300"/>
  <path fill-rule="evenodd" clip-rule="evenodd" d="M348.46 84.4425C343.717 64.5497 337.192 60.7823 335.983 77.2391C337.192 60.7823 357.935 39.9231 375.644 37.3583C357.935 39.9231 350.243 68.3176 360.936 91.6456C350.243 68.3176 343.717 64.5498 348.46 84.4425Z" fill="#FFB300"/>
  <path fill-rule="evenodd" clip-rule="evenodd" d="M386.982 116.313C387.549 95.8703 382.221 90.5423 376.795 106.126C382.221 90.5423 407.657 75.7628 425.426 77.8688C407.657 75.7628 392.878 101.199 397.169 126.5C392.878 101.199 387.549 95.8703 386.982 116.313Z" fill="#FFB300"/>
  <path fill-rule="evenodd" clip-rule="evenodd" d="M415.943 157.068C421.782 137.469 418.015 130.943 408.74 144.591C418.015 130.943 446.409 123.251 463.027 129.884C446.409 123.25 425.55 143.995 423.146 169.544C425.55 143.995 421.782 137.469 415.943 157.068Z" fill="#FFB300"/>
  <path fill-rule="evenodd" clip-rule="evenodd" d="M433.369 203.93C444.082 186.51 442.132 179.232 429.64 190.014C442.132 179.232 471.549 179.15 485.885 189.858C471.549 179.15 446.032 193.789 437.098 217.846C446.032 193.789 444.082 186.51 433.369 203.93Z" fill="#FFB300"/>
  <path fill-rule="evenodd" clip-rule="evenodd" d="M438.072 253.705C452.929 239.652 452.929 232.117 438.072 239.299C452.929 232.117 481.365 239.652 492.44 253.705C481.365 239.652 452.929 247.187 438.072 268.112C452.929 247.187 452.929 239.652 438.072 253.705Z" fill="#FFB300"/>
  <path fill-rule="evenodd" clip-rule="evenodd" d="M429.732 303.002C447.72 293.272 449.67 285.994 433.461 289.086C449.67 285.994 475.187 300.632 482.248 317.073C475.187 300.632 445.769 300.551 426.004 316.917C445.769 300.551 447.72 293.272 429.732 303.002Z" fill="#FFB300"/>
  <path fill-rule="evenodd" clip-rule="evenodd" d="M408.918 348.46C428.811 343.717 432.578 337.192 416.121 335.983C432.578 337.192 453.437 357.935 456.002 375.644C453.437 357.935 425.042 350.243 401.714 360.936C425.042 350.243 428.811 343.717 408.918 348.46Z" fill="#FFB300"/>
  <path fill-rule="evenodd" clip-rule="evenodd" d="M377.047 386.982C397.489 387.549 402.817 382.221 387.234 376.795C402.817 382.221 417.597 407.657 415.491 425.426C417.597 407.657 392.161 392.878 366.86 397.169C392.161 392.878 397.489 387.549 377.047 386.982Z" fill="#FFB300"/>
  <path fill-rule="evenodd" clip-rule="evenodd" d="M336.292 415.943C355.891 421.782 362.416 418.015 348.769 408.74C362.416 418.015 370.109 446.409 363.476 463.027C370.109 446.409 349.365 425.55 323.815 423.146C349.365 425.55 355.891 421.782 336.292 415.943Z" fill="#FFB300"/>
  <path fill-rule="evenodd" clip-rule="evenodd" d="M289.43 433.369C306.85 444.082 314.129 442.131 303.346 429.64C314.129 442.131 314.21 471.549 303.502 485.884C314.21 471.549 299.571 446.032 275.515 437.097C299.571 446.032 306.85 444.082 289.43 433.369Z" fill="#FFB300"/>
  <path fill-rule="evenodd" clip-rule="evenodd" d="M239.654 438.072C253.708 452.928 261.243 452.928 254.061 438.072C261.243 452.928 253.708 481.365 239.654 492.44C253.708 481.365 246.172 452.928 225.248 438.072C246.172 452.928 253.708 452.928 239.654 438.072Z" fill="#FFB300"/>
  <path fill-rule="evenodd" clip-rule="evenodd" d="M190.358 429.732C200.088 447.72 207.366 449.67 204.274 433.461C207.366 449.67 192.729 475.187 176.287 482.248C192.729 475.187 192.809 445.769 176.443 426.004C192.809 445.769 200.088 447.72 190.358 429.732Z" fill="#FFB300"/>
  <path fill-rule="evenodd" clip-rule="evenodd" d="M144.9 408.918C149.642 428.811 156.168 432.578 157.376 416.121C156.168 432.578 135.424 453.437 117.716 456.002C135.424 453.437 143.116 425.043 132.423 401.715C143.116 425.043 149.642 428.811 144.9 408.918Z" fill="#FFB300"/>
  <path fill-rule="evenodd" clip-rule="evenodd" d="M106.378 377.047C105.81 397.489 111.138 402.817 116.565 387.234C111.138 402.817 85.7025 417.597 67.9337 415.491C85.7025 417.597 100.481 392.16 96.1907 366.86C100.482 392.16 105.81 397.489 106.378 377.047Z" fill="#FFB300"/>
  <path fill-rule="evenodd" clip-rule="evenodd" d="M77.4173 336.292C71.5783 355.891 75.3457 362.416 84.6207 348.768C75.3457 362.416 46.9516 370.109 30.3331 363.476C46.9516 370.109 67.8101 349.365 70.2139 323.815C67.8101 349.365 71.5783 355.891 77.4173 336.292Z" fill="#FFB300"/>
  <path fill-rule="evenodd" clip-rule="evenodd" d="M59.9914 289.43C49.2786 306.85 51.2289 314.129 63.7202 303.346C51.2289 314.129 21.8113 314.21 7.47595 303.502C21.8113 314.21 47.3284 299.571 56.2629 275.515C47.3284 299.571 49.2787 306.85 59.9914 289.43Z" fill="#FFB300"/>
  <path fill-rule="evenodd" clip-rule="evenodd" d="M55.2883 239.654C40.4321 253.708 40.4321 261.243 55.2883 254.061C40.4321 261.243 11.9957 253.708 0.920166 239.654C11.9957 253.708 40.4321 246.172 55.2883 225.248C40.4321 246.172 40.4321 253.708 55.2883 239.654Z" fill="#FFB300"/>
  <path fill-rule="evenodd" clip-rule="evenodd" d="M63.6278 190.358C45.6403 200.088 43.6901 207.366 59.899 204.274C43.69 207.366 18.1729 192.729 11.1124 176.287C18.173 192.729 47.5909 192.809 67.3567 176.443C47.5909 192.809 45.6403 200.088 63.6278 190.358Z" fill="#FFB300"/>
  <path fill-rule="evenodd" clip-rule="evenodd" d="M84.4426 144.9C64.5497 149.642 60.7823 156.168 77.2392 157.376C60.7824 156.168 39.9231 135.424 37.3584 117.716C39.9231 135.424 68.3176 143.116 91.646 132.423C68.3176 143.116 64.5498 149.642 84.4426 144.9Z" fill="#FFB300"/>
  <path fill-rule="evenodd" clip-rule="evenodd" d="M116.313 106.378C95.8703 105.81 90.5423 111.138 106.126 116.565C90.5423 111.138 75.7628 85.7025 77.8688 67.9337C75.7628 85.7025 101.199 100.481 126.5 96.1906C101.199 100.482 95.8703 105.81 116.313 106.378Z" fill="#FFB300"/>
  <path fill-rule="evenodd" clip-rule="evenodd" d="M157.068 77.4173C137.469 71.5783 130.944 75.3457 144.592 84.6207C130.944 75.3457 123.251 46.9516 129.884 30.3331C123.251 46.9516 143.995 67.8101 169.545 70.2139C143.995 67.8101 137.469 71.5783 157.068 77.4173Z" fill="#FFB300"/>
  <path fill-rule="evenodd" clip-rule="evenodd" d="M203.93 59.9914C186.51 49.2786 179.232 51.2289 190.014 63.7202C179.232 51.2289 179.15 21.8113 189.858 7.47595C179.15 21.8113 193.789 47.3284 217.845 56.2629C193.789 47.3284 186.51 49.2787 203.93 59.9914Z" fill="#FFB300"/>
  <path fill-rule="evenodd" clip-rule="evenodd" d="M253.706 55.2883C251.128 52.5622 248.77 50.3379 246.68 48.6129V45.9759C247.256 47.7652 249.527 50.8708 253.706 55.2883ZM246.68 8.58058C248.77 5.57094 251.128 2.95173 253.706 0.919861C249.527 4.21372 247.257 9.04244 246.68 14.593V8.58058ZM246.68 20.5379C247.815 32.5519 255.549 46.3675 268.112 55.2883C255.548 46.3675 247.815 42.8068 246.68 44.5987V20.5379Z" fill="#FFA000"/>
  <path fill-rule="evenodd" clip-rule="evenodd" d="M246.68 450.442C300.929 450.442 352.408 429.119 390.762 390.764C429.117 352.41 450.44 300.93 450.44 246.68C450.44 192.431 429.117 140.95 390.762 102.597C352.408 64.2416 300.929 42.9175 246.68 42.9175V450.442Z" fill="#FFA000"/>
  <path fill-rule="evenodd" clip-rule="evenodd" d="M303.002 63.6278C293.272 45.6403 285.994 43.6901 289.086 59.8986C285.994 43.69 300.632 18.1726 317.073 11.1124C300.632 18.1726 300.551 47.5913 316.917 67.3567C300.551 47.5913 293.272 45.6403 303.002 63.6278Z" fill="#FFA000"/>
  <path fill-rule="evenodd" clip-rule="evenodd" d="M348.46 84.4416C343.718 64.5491 337.192 60.7813 335.984 77.2386C337.192 60.7814 357.936 39.9225 375.644 37.3582C357.936 39.9226 350.244 68.317 360.936 91.6454C350.244 68.317 343.718 64.5492 348.46 84.4416Z" fill="#FFA000"/>
  <path fill-rule="evenodd" clip-rule="evenodd" d="M386.982 116.313C387.549 95.8703 382.221 90.5423 376.795 106.126C382.221 90.5423 407.657 75.7625 425.426 77.8689C407.657 75.7625 392.878 101.199 397.169 126.5C392.878 101.199 387.549 95.8703 386.982 116.313Z" fill="#FFA000"/>
  <path fill-rule="evenodd" clip-rule="evenodd" d="M415.943 157.068C421.782 137.47 418.014 130.944 408.74 144.592C418.014 130.944 446.409 123.252 463.027 129.884C446.409 123.251 425.55 143.995 423.146 169.545C425.55 143.995 421.782 137.47 415.943 157.068Z" fill="#FFA000"/>
  <path fill-rule="evenodd" clip-rule="evenodd" d="M433.369 203.93C444.082 186.51 442.131 179.232 429.64 190.014C442.131 179.232 471.549 179.15 485.884 189.859C471.549 179.15 446.032 193.789 437.097 217.845C446.032 193.789 444.082 186.51 433.369 203.93Z" fill="#FFA000"/>
  <path fill-rule="evenodd" clip-rule="evenodd" d="M438.072 253.705C452.928 239.652 452.928 232.116 438.072 239.299C452.928 232.116 481.365 239.652 492.44 253.705C481.365 239.652 452.928 247.187 438.072 268.112C452.928 247.187 452.928 239.652 438.072 253.705Z" fill="#FFA000"/>
  <path fill-rule="evenodd" clip-rule="evenodd" d="M429.732 303.002C447.72 293.272 449.67 285.994 433.461 289.086C449.67 285.994 475.187 300.632 482.248 317.073C475.187 300.632 445.769 300.551 426.004 316.917C445.769 300.551 447.72 293.272 429.732 303.002Z" fill="#FFA000"/>
  <path fill-rule="evenodd" clip-rule="evenodd" d="M408.918 348.46C428.81 343.717 432.578 337.192 416.121 335.983C432.578 337.192 453.437 357.935 456.001 375.644C453.437 357.935 425.042 350.243 401.714 360.936C425.042 350.243 428.81 343.717 408.918 348.46Z" fill="#FFA000"/>
  <path fill-rule="evenodd" clip-rule="evenodd" d="M377.048 386.983C397.49 387.55 402.818 382.222 387.234 376.795C402.818 382.222 417.597 407.658 415.491 425.427C417.597 407.658 392.161 392.879 366.86 397.169C392.161 392.879 397.49 387.55 377.048 386.983Z" fill="#FFA000"/>
  <path fill-rule="evenodd" clip-rule="evenodd" d="M336.292 415.943C355.891 421.782 362.416 418.015 348.768 408.739C362.416 418.015 370.109 446.409 363.476 463.027C370.109 446.409 349.365 425.55 323.815 423.146C349.365 425.55 355.891 421.782 336.292 415.943Z" fill="#FFA000"/>
  <path fill-rule="evenodd" clip-rule="evenodd" d="M289.43 433.368C306.851 444.081 314.129 442.131 303.346 429.64C314.129 442.131 314.211 471.548 303.502 485.884C314.211 471.548 299.571 446.032 275.515 437.097C299.571 446.032 306.851 444.081 289.43 433.368Z" fill="#FFA000"/>
  <path fill-rule="evenodd" clip-rule="evenodd" d="M246.68 444.747C255.977 452.427 259.926 450.203 254.061 438.072C259.926 450.203 255.977 471.386 246.68 484.781V478.768C246.878 476.86 246.873 474.867 246.68 472.823V448.762C246.873 448.457 246.878 448 246.68 447.385V444.747Z" fill="#FFA000"/>
</svg>